<svg width="22" height="22" viewBox="0 0 22 22" fill="none" xmlns="http://www.w3.org/2000/svg">
<path d="M4.33335 4.33335L3.5 1H1M4.33335 4.33335L6 14.3333M4.33335 4.33335L21 4.33335L19.3333 14.3333H6M17.6667 17.6667H6.00004M17.6667 17.6667C16.7462 17.6667 16 18.4129 16 19.3333C16 20.2538 16.7462 21 17.6667 21C18.5872 21 19.3333 20.2538 19.3333 19.3333C19.3333 18.4129 18.5872 17.6667 17.6667 17.6667ZM6.00004 17.6667C5.07953 17.6667 4.33335 18.4129 4.33335 19.3333C4.33335 20.2538 5.07953 21 6.00004 21C6.92051 21 7.6667 20.2538 7.6667 19.3333C7.6667 18.4129 6.92051 17.6667 6.00004 17.6667ZM6.00004 17.6667L6 14.3333" stroke="#0F6DA1" stroke-width="1.8" stroke-miterlimit="10" stroke-linecap="round" stroke-linejoin="round"/>
</svg>
