<svg width="20" height="20" viewBox="0 0 20 20" fill="none" xmlns="http://www.w3.org/2000/svg">
<path d="M9.57143 6.99999C7.93877 6.99999 6.61521 8.34312 6.61521 10C6.61521 11.6568 7.93877 13 9.57143 13C11.2041 13 12.5276 11.6568 12.5276 10C12.5276 8.34312 11.2041 6.99999 9.57143 6.99999ZM17.8689 7.85918L17.0685 8.52785C16.1555 9.2906 16.1555 10.7094 17.0685 11.4721L17.8689 12.1408C18.1526 12.3778 18.2258 12.7881 18.0421 13.111L16.4617 15.889C16.2779 16.2119 15.8911 16.3527 15.5471 16.2219L14.5763 15.8528C13.4688 15.4318 12.2581 16.1411 12.0637 17.3249L11.8932 18.3627C11.8329 18.7304 11.5193 19 11.1519 19H7.99093C7.62356 19 7.31 18.7304 7.24961 18.3627L7.07916 17.3249C6.88476 16.1411 5.67401 15.4318 4.56659 15.8528L3.59578 16.2219C3.25171 16.3527 2.86491 16.2119 2.68118 15.889L1.10073 13.111C0.917042 12.7881 0.990283 12.3778 1.27393 12.1408L2.07436 11.4721C2.98734 10.7094 2.98734 9.2906 2.07436 8.52785L1.27393 7.85918C0.990283 7.62221 0.917042 7.21187 1.10073 6.88897L2.68118 4.11099C2.86491 3.78809 3.25171 3.6473 3.59578 3.7781L4.56659 4.14718C5.67401 4.56819 6.88476 3.85884 7.07916 2.67507L7.24961 1.63728C7.31 1.26954 7.62356 1 7.99093 1H11.1519C11.5193 1 11.8329 1.26954 11.8932 1.63728L12.0637 2.67507C12.2581 3.85884 13.4688 4.56819 14.5763 4.14718L15.5471 3.7781C15.8911 3.6473 16.2779 3.78809 16.4617 4.11099L18.0421 6.88897C18.2258 7.21187 18.1526 7.62221 17.8689 7.85918Z" stroke="#0F6DA1" stroke-width="1.8" stroke-miterlimit="10" stroke-linecap="round" stroke-linejoin="round"/>
</svg>
