<svg width="40" height="40" viewBox="0 0 40 40" fill="none" xmlns="http://www.w3.org/2000/svg">
<circle cx="20" cy="20" r="19.5" stroke="white"/>
<path d="M26.766 21.3138C26.4589 20.9258 26.5468 20.7533 26.766 20.4065C26.77 20.4025 29.3057 16.8986 29.567 15.7103L29.5685 15.7095C29.6984 15.2765 29.5685 14.9583 28.9408 14.9583H26.8634C26.3346 14.9583 26.0907 15.2314 25.9601 15.537C25.9601 15.537 24.9025 18.0687 23.4062 19.7098C22.9233 20.184 22.7 20.336 22.4364 20.336C22.3066 20.336 22.1047 20.184 22.1047 19.751V15.7095C22.1047 15.1902 21.9567 14.9583 21.5189 14.9583H18.2525C17.9208 14.9583 17.7236 15.2005 17.7236 15.4261C17.7236 15.9185 18.4718 16.0318 18.5493 17.4172V20.4231C18.5493 21.0818 18.4298 21.2029 18.1646 21.2029C17.4584 21.2029 15.7445 18.6609 14.7288 15.7515C14.5237 15.187 14.3234 14.959 13.7906 14.959H11.7125C11.1195 14.959 11 15.2322 11 15.5378C11 16.0777 11.7062 18.7622 14.2838 22.3089C16.0017 24.7298 18.4211 26.0416 20.6219 26.0416C21.9448 26.0416 22.1063 25.7503 22.1063 25.2491C22.1063 22.9359 21.9868 22.7174 22.6494 22.7174C22.9565 22.7174 23.4854 22.8694 24.7204 24.0371C26.1319 25.4217 26.3639 26.0416 27.154 26.0416H29.2313C29.8235 26.0416 30.1235 25.7503 29.9509 25.1755C29.5559 23.9666 26.8864 21.48 26.766 21.3138Z" fill="white"/>
</svg>
