<svg width="40" height="40" viewBox="0 0 40 40" fill="none" xmlns="http://www.w3.org/2000/svg">
<path d="M9.27863 36.2782L9.07869 36.1457L8.85025 36.2187L2.10298 38.3757L4.28154 31.8815L4.36363 31.6368L4.2117 31.4282C1.87451 28.2185 0.5 24.266 0.5 20C0.5 9.24602 9.24376 0.5 19.995 0.5H20.005C30.7562 0.5 39.5 9.24848 39.5 20C39.5 30.7515 30.7562 39.5 20.005 39.5C16.0385 39.5 12.3616 38.3205 9.27863 36.2782Z" stroke="#FFE8E8"/>
<path d="M14.5797 11H13.731C13.4355 11 12.9559 11.113 12.5502 11.5641C12.1441 12.0155 11 13.1065 11 15.3254C11 17.5443 12.5871 19.6883 12.8083 19.9895C13.0298 20.2905 15.872 24.9893 20.3734 26.797C24.1145 28.2993 24.876 28.0005 25.6877 27.9252C26.4998 27.8503 28.3081 26.8345 28.6771 25.7815C29.0462 24.7286 29.0462 23.8258 28.9356 23.6373C28.8247 23.4493 28.5293 23.3366 28.0866 23.1112C27.6436 22.8855 25.473 21.7761 25.067 21.6253C24.661 21.4752 24.3659 21.3999 24.0704 21.8516C23.775 22.3024 22.9053 23.3454 22.6469 23.6463C22.3887 23.9476 22.1302 23.9853 21.6872 23.7596C21.2443 23.5333 19.8325 23.0487 18.1407 21.5126C16.8239 20.3171 15.9101 18.7925 15.6516 18.3411C15.3935 17.89 15.6241 17.6459 15.8462 17.4208C16.0452 17.2189 16.3141 16.9428 16.5355 16.6796C16.7567 16.4161 16.8197 16.2282 16.9676 15.9273C17.1152 15.6264 17.0412 15.3629 16.9306 15.1375C16.8197 14.9118 15.9698 12.6817 15.5759 11.7898H15.5762C15.2444 11.0387 14.8952 11.0133 14.5797 11Z" fill="white"/>
</svg>
