<svg width="20" height="20" viewBox="0 0 20 20" fill="none" xmlns="http://www.w3.org/2000/svg">
<path d="M8.25065 3.53596C8.82426 3.40169 9.41154 3.33457 10.0007 3.33596C15.834 3.33596 19.1673 10.0026 19.1673 10.0026C18.6615 10.949 18.0582 11.8399 17.3673 12.661M11.7673 11.7693C11.5384 12.0149 11.2624 12.2119 10.9558 12.3486C10.6491 12.4852 10.3181 12.5587 9.98239 12.5646C9.64672 12.5705 9.31329 12.5088 9.00199 12.383C8.6907 12.2573 8.40792 12.0701 8.17052 11.8328C7.93313 11.5954 7.74598 11.3126 7.62024 11.0013C7.49451 10.69 7.43276 10.3566 7.43868 10.0209C7.4446 9.68521 7.51808 9.35416 7.65472 9.0475C7.79135 8.74083 7.98836 8.46483 8.23398 8.23596M14.9507 14.9526C13.5261 16.0385 11.7916 16.64 10.0007 16.6693C4.16732 16.6693 0.833984 10.0026 0.833984 10.0026C1.87056 8.07087 3.30826 6.38313 5.05065 5.05263L14.9507 14.9526Z" stroke="currentColor" stroke-width="1.33333" stroke-linecap="round" stroke-linejoin="round"/>
<path d="M0.833984 0.835938L19.1673 19.1693" stroke="currentColor" stroke-width="1.33333" stroke-linecap="round" stroke-linejoin="round"/>
</svg>
