<svg width="18" height="17" viewBox="0 0 18 17" xmlns="http://www.w3.org/2000/svg">
<path d="M9.68506 1.93816L9.68505 1.93815L9.36726 2.27946L9.00132 2.67247L8.63539 2.27946L8.31759 1.93815L8.31448 1.9348L8.31449 1.93479C6.65232 0.11656 3.85886 0.0128941 2.07094 1.70121L9.68506 1.93816ZM9.68506 1.93816L9.6877 1.93528M9.68506 1.93816L9.6877 1.93528M9.6877 1.93528C10.5264 1.02029 11.699 0.501745 12.9254 0.500107C14.1505 0.50222 15.3218 1.02094 16.1591 1.93561C17.9465 3.89559 17.947 6.92692 16.1604 8.88742L9.10273 16.4548L9.10247 16.4551L9.09712 16.4605L9.09695 16.4607C9.04055 16.515 8.95427 16.5131 8.90007 16.4549L8.89989 16.4547M9.6877 1.93528L8.89989 16.4547M8.89989 16.4547L1.83964 8.88737C0.0529098 6.92653 0.053454 3.89481 1.84127 1.93463M8.89989 16.4547L1.84127 1.93463M1.84127 1.93463C1.91493 1.85406 1.99151 1.77626 2.07087 1.70128L1.84127 1.93463Z" stroke="#0F6DA1"/>
</svg>
