<svg width="20" height="20" viewBox="0 0 20 20" xmlns="http://www.w3.org/2000/svg">
<path d="M9.99935 1.66672C10.2204 1.66672 10.4323 1.75451 10.5886 1.9108C10.7449 2.06708 10.8327 2.27904 10.8327 2.50005V5.00005C10.8327 5.22106 10.7449 5.43303 10.5886 5.58931C10.4323 5.74559 10.2204 5.83338 9.99935 5.83338C9.77834 5.83338 9.56638 5.74559 9.41009 5.58931C9.25381 5.43303 9.16602 5.22106 9.16602 5.00005V2.50005C9.16602 2.27904 9.25381 2.06708 9.41009 1.9108C9.56638 1.75451 9.77834 1.66672 9.99935 1.66672ZM9.99935 14.1667C10.2204 14.1667 10.4323 14.2545 10.5886 14.4108C10.7449 14.5671 10.8327 14.779 10.8327 15.0001V17.5001C10.8327 17.7211 10.7449 17.933 10.5886 18.0893C10.4323 18.2456 10.2204 18.3334 9.99935 18.3334C9.77834 18.3334 9.56638 18.2456 9.41009 18.0893C9.25381 17.933 9.16602 17.7211 9.16602 17.5001V15.0001C9.16602 14.779 9.25381 14.5671 9.41009 14.4108C9.56638 14.2545 9.77834 14.1667 9.99935 14.1667ZM18.3327 10.0001C18.3327 10.2211 18.2449 10.433 18.0886 10.5893C17.9323 10.7456 17.7204 10.8334 17.4994 10.8334H14.9994C14.7783 10.8334 14.5664 10.7456 14.4101 10.5893C14.2538 10.433 14.166 10.2211 14.166 10.0001C14.166 9.77904 14.2538 9.56708 14.4101 9.4108C14.5664 9.25452 14.7783 9.16672 14.9994 9.16672H17.4994C17.7204 9.16672 17.9323 9.25452 18.0886 9.4108C18.2449 9.56708 18.3327 9.77904 18.3327 10.0001ZM5.83268 10.0001C5.83268 10.2211 5.74489 10.433 5.58861 10.5893C5.43232 10.7456 5.22036 10.8334 4.99935 10.8334H2.49935C2.27834 10.8334 2.06637 10.7456 1.91009 10.5893C1.75381 10.433 1.66602 10.2211 1.66602 10.0001C1.66602 9.77904 1.75381 9.56708 1.91009 9.4108C2.06637 9.25452 2.27834 9.16672 2.49935 9.16672H4.99935C5.22036 9.16672 5.43232 9.25452 5.58861 9.4108C5.74489 9.56708 5.83268 9.77904 5.83268 10.0001ZM15.8919 15.8926C15.7356 16.0488 15.5237 16.1365 15.3027 16.1365C15.0817 16.1365 14.8698 16.0488 14.7135 15.8926L12.946 14.1251C12.7942 13.9679 12.7102 13.7574 12.7121 13.5389C12.714 13.3204 12.8017 13.1114 12.9562 12.9569C13.1107 12.8024 13.3197 12.7147 13.5382 12.7128C13.7567 12.7109 13.9672 12.7949 14.1244 12.9467L15.8919 14.7134C15.9693 14.7908 16.0308 14.8827 16.0727 14.9839C16.1147 15.085 16.1363 15.1935 16.1363 15.303C16.1363 15.4125 16.1147 15.5209 16.0727 15.6221C16.0308 15.7233 15.9693 15.8152 15.8919 15.8926ZM7.05268 7.05338C6.89641 7.20961 6.68449 7.29737 6.46352 7.29737C6.24255 7.29737 6.03062 7.20961 5.87435 7.05338L4.10768 5.28672C3.95132 5.13046 3.86343 4.91849 3.86335 4.69743C3.86327 4.47637 3.95101 4.26433 4.10727 4.10797C4.26352 3.9516 4.4755 3.86371 4.69655 3.86363C4.91761 3.86355 5.12965 3.95129 5.28602 4.10755L7.05268 5.87505C7.20891 6.03132 7.29667 6.24325 7.29667 6.46422C7.29667 6.68519 7.20891 6.89711 7.05268 7.05338ZM4.10768 15.8926C3.95146 15.7363 3.86369 15.5244 3.86369 15.3034C3.86369 15.0824 3.95146 14.8705 4.10768 14.7142L5.87518 12.9467C5.95206 12.8671 6.04401 12.8036 6.14568 12.76C6.24735 12.7163 6.3567 12.6933 6.46735 12.6923C6.578 12.6914 6.68773 12.7125 6.79015 12.7544C6.89256 12.7963 6.9856 12.8581 7.06385 12.9364C7.14209 13.0146 7.20397 13.1077 7.24587 13.2101C7.28777 13.3125 7.30885 13.4222 7.30789 13.5329C7.30693 13.6435 7.28394 13.7529 7.24027 13.8546C7.19659 13.9562 7.13311 14.0482 7.05352 14.1251L5.28685 15.8926C5.20946 15.97 5.11755 16.0315 5.01638 16.0734C4.91522 16.1154 4.80678 16.137 4.69727 16.137C4.58775 16.137 4.47931 16.1154 4.37815 16.0734C4.27698 16.0315 4.18508 15.97 4.10768 15.8926ZM12.946 7.05338C12.7898 6.89711 12.702 6.68519 12.702 6.46422C12.702 6.24325 12.7898 6.03132 12.946 5.87505L14.7127 4.10755C14.8689 3.95118 15.0809 3.86329 15.302 3.86322C15.523 3.86314 15.7351 3.95088 15.8914 4.10713C16.0478 4.26339 16.1357 4.47536 16.1358 4.69642C16.1358 4.91748 16.0481 5.12952 15.8919 5.28588L14.1244 7.05338C13.9681 7.20961 13.7562 7.29737 13.5352 7.29737C13.3142 7.29737 13.1023 7.20961 12.946 7.05338Z"/>
</svg>
